# xmcd CD database file
#
# Track frame offsets:
#	150
#	31215
#	61091
#	90633
#	124642
#	152873
#
# Disc length: 2493 seconds
#
# Revision: 0
# Processed by: cddbd v1.5.1PL2 Copyright (c) Steve Scherf et al.
# Submitted via: CDex 1.51
#
DISCID=4009bb06
DTITLE=Wayne Shorter - Adam's Apple
DYEAR=1966
DGENRE=Jazz
TTITLE0=Adam's Apple
TTITLE1=502 Blues (Drinkin' And Drivin')
TTITLE2=El Gaucho
TTITLE3=Footprints
TTITLE4=Teru
TTITLE5=Chief Crazy Horse
EXTD=YEAR: 1966
EXTT0=
EXTT1=
EXTT2=
EXTT3=
EXTT4=
EXTT5=
PLAYORDER=
